<svg width="24" height="25" viewBox="0 0 24 25" fill="none" xmlns="http://www.w3.org/2000/svg">
<mask id="mask0_11:1710" style="mask-type:alpha" maskUnits="userSpaceOnUse" x="0" y="0" width="24" height="25">
<rect y="0.628052" width="24" height="24" fill="#C4C4C4"/>
</mask>
<g mask="url(#mask0_11:1710)">
</g>
<g clip-path="url(#clip0_11:1710)">
<path d="M-37.9 18.628C-38 18.528 -38 18.528 -38 18.428C-37.9 18.428 -37.9 18.528 -37.9 18.628ZM18 2.82803H16.7V2.52803C16.7 2.12803 16.4 1.72803 15.9 1.72803C15.5 1.72803 15.1 2.02803 15.1 2.52803V2.82803H7.7V2.52803C7.7 2.12803 7.4 1.72803 6.9 1.72803C6.5 1.72803 6.1 2.02803 6.1 2.52803V2.82803H4.8C3.4 2.82803 2.3 3.92803 2.3 5.32803V18.428C2.3 19.828 3.4 20.928 4.8 20.928H7.7C8.1 20.928 8.5 20.628 8.5 20.128C8.5 19.728 8.2 19.328 7.7 19.328H4.8C4.2 19.328 3.8 18.828 3.8 18.328V8.52803C3.8 8.22803 4.2 7.82803 4.8 7.82803H18C18.6 7.82803 19 8.22803 19 8.52803V10.328C19 10.728 19.3 11.128 19.8 11.128C20.2 11.128 20.6 10.828 20.6 10.328V5.32803C20.5 3.92803 19.4 2.82803 18 2.82803ZM19 6.52803C18.7 6.42803 18.3 6.32803 18 6.32803H4.8C4.4 6.32803 4.1 6.42803 3.8 6.52803V5.32803C3.8 4.72803 4.3 4.32803 4.8 4.32803H6.1V4.82803C6.1 5.22803 6.4 5.62803 6.9 5.62803C7.3 5.62803 7.7 5.32803 7.7 4.82803V4.32803H15.2V4.82803C15.2 5.22803 15.5 5.62803 16 5.62803C16.4 5.62803 16.8 5.32803 16.8 4.82803V4.32803H18C18.6 4.32803 19 4.82803 19 5.32803V6.52803Z" fill="#1D9BF0"/>
<path d="M15.5 11.028C12.1 11.028 9.30005 13.828 9.30005 17.228C9.30005 20.628 12.1 23.428 15.5 23.428C18.9 23.428 21.7 20.628 21.7 17.228C21.7 13.828 18.9 11.028 15.5 11.028ZM15.5 22.028C12.9 22.028 10.8 19.928 10.8 17.328C10.8 14.728 12.9 12.628 15.5 12.628C18.1 12.628 20.2 14.728 20.2 17.328C20.2 19.828 18.1 22.028 15.5 22.028Z" fill="#1D9BF0"/>
<path d="M18.9 19.328C18.8 19.528 18.5 19.728 18.3 19.728C18.2 19.728 18 19.728 17.9 19.628L14.8 17.628V14.628C14.8 14.228 15.1 13.828 15.6 13.828C16 13.828 16.4 14.128 16.4 14.628V16.828L18.8 18.328C19 18.528 19.1 18.928 18.9 19.328Z" fill="#1D9BF0"/>
</g>
<defs>
<clipPath id="clip0_11:1710">
<rect width="24" height="24" fill="white" transform="translate(0 0.628052)"/>
</clipPath>
</defs>
</svg>
