<svg width="20" height="20" viewBox="0 0 20 20" fill="none" xmlns="http://www.w3.org/2000/svg">
<path d="M15.53 5.21975L10.53 0.21975C10.237 -0.07325 9.76201 -0.07325 9.47001 0.21975L4.47001 5.21975C4.17601 5.51275 4.17601 5.98775 4.47001 6.27975C4.76401 6.57175 5.23701 6.57375 5.53001 6.27975L9.25001 2.55975V12.7498C9.25001 13.1638 9.58601 13.4998 10 13.4998C10.414 13.4998 10.75 13.1638 10.75 12.7498V2.55975L14.47 6.27975C14.616 6.42675 14.808 6.49975 15 6.49975C15.192 6.49975 15.384 6.42775 15.53 6.27975C15.823 5.98675 15.823 5.51275 15.53 5.21975Z" fill="#536471"/>
<path d="M17.708 19.6938H2.29201C1.02801 19.6938 0 18.6658 0 17.4018V11.7498C0 11.3358 0.336 10.9998 0.75 10.9998C1.164 10.9998 1.5 11.3358 1.5 11.7498V17.4018C1.5 17.8388 1.85501 18.1938 2.29201 18.1938H17.708C18.145 18.1938 18.5 17.8388 18.5 17.4018V11.7498C18.5 11.3358 18.836 10.9998 19.25 10.9998C19.664 10.9998 20 11.3358 20 11.7498V17.4018C20 18.6658 18.972 19.6938 17.708 19.6938Z" fill="#536471"/>
</svg>
